{
  "accessors": [
    {
      "bufferView": 2,
      "componentType": 5126,
      "count": 1692,
      "max": [0.09201908856630325, 1.1588001251220703, 9.292252540588379],
      "min": [-13.340667724609375, -1.8984369039535522, -6.8925957679748535],
      "type": "VEC3"
    },
    {
      "bufferView": 2,
      "byteOffset": 20304,
      "componentType": 5126,
      "count": 1692,
      "max": [0.9999997019767761, 1.0, 0.9999910593032837],
      "min": [-0.9999992847442627, -1.0, -1.0],
      "type": "VEC3"
    },
    {
      "bufferView": 3,
      "componentType": 5126,
      "count": 1692,
      "max": [0.9999147653579712, 0.9999982714653015, 0.999954879283905, 1.0],
      "min": [
        -0.9999415278434753, -0.99986732006073, -0.9993921518325806, -1.0
      ],
      "type": "VEC4"
    },
    {
      "bufferView": 1,
      "componentType": 5126,
      "count": 1692,
      "max": [0.49480634927749634, 0.9975658655166626],
      "min": [0.14535513520240784, 0.2684721052646637],
      "type": "VEC2"
    },
    {
      "bufferView": 0,
      "componentType": 5125,
      "count": 8178,
      "type": "SCALAR"
    },
    {
      "bufferView": 2,
      "byteOffset": 40608,
      "componentType": 5126,
      "count": 6858,
      "max": [20.596763610839844, 20.596763610839844, 103.08534240722656],
      "min": [-20.596769332885742, -20.596769332885742, -0.00032806396484375],
      "type": "VEC3"
    },
    {
      "bufferView": 2,
      "byteOffset": 122904,
      "componentType": 5126,
      "count": 6858,
      "max": [1.0, 1.0, 1.0],
      "min": [-1.0, -1.0, -1.0],
      "type": "VEC3"
    },
    {
      "bufferView": 3,
      "byteOffset": 27072,
      "componentType": 5126,
      "count": 6858,
      "max": [1.0, 1.0, 0.9999997615814209, 1.0],
      "min": [-1.0, -1.0, -1.0, -1.0],
      "type": "VEC4"
    },
    {
      "bufferView": 1,
      "byteOffset": 13536,
      "componentType": 5126,
      "count": 6858,
      "max": [1.0, 0.9978392124176025],
      "min": [0.0, 0.0045077502727508545],
      "type": "VEC2"
    },
    {
      "bufferView": 0,
      "byteOffset": 32712,
      "componentType": 5125,
      "count": 32052,
      "type": "SCALAR"
    },
    {
      "bufferView": 4,
      "componentType": 5126,
      "count": 142,
      "max": [4.699999809265137],
      "min": [0.0],
      "type": "SCALAR"
    },
    {
      "bufferView": 5,
      "componentType": 5126,
      "count": 142,
      "max": [0.0, 0.7071067690849304, 0.7071067690849304, 0.6644630432128906],
      "min": [
        -0.6644630432128906, 0.24184471368789673, 0.24184471368789673,
        8.659560603426554e-17
      ],
      "type": "VEC4"
    }
  ],
  "animations": [
    {
      "channels": [
        {
          "sampler": 0,
          "target": {
            "node": 4,
            "path": "rotation"
          }
        }
      ],
      "name": "Take 001",
      "samplers": [
        {
          "input": 10,
          "interpolation": "LINEAR",
          "output": 11
        }
      ]
    }
  ],
  "asset": {
    "extras": {
      "author": "Karolina Renkiewicz (https://sketchfab.com/KarolinaRenkiewicz)",
      "license": "SKETCHFAB Standard (https://sketchfab.com/licenses)",
      "source": "https://sketchfab.com/3d-models/vintage-bird-cage-low-poly-animation-af6e5966d16a468c88b41369eefcbdf8",
      "title": "Vintage Bird Cage - Low Poly Animation"
    },
    "generator": "Sketchfab-14.1.0",
    "version": "2.0"
  },
  "bufferViews": [
    {
      "buffer": 0,
      "byteLength": 160920,
      "name": "floatBufferViews",
      "target": 34963
    },
    {
      "buffer": 0,
      "byteLength": 68400,
      "byteOffset": 160920,
      "byteStride": 8,
      "name": "floatBufferViews",
      "target": 34962
    },
    {
      "buffer": 0,
      "byteLength": 205200,
      "byteOffset": 229320,
      "byteStride": 12,
      "name": "floatBufferViews",
      "target": 34962
    },
    {
      "buffer": 0,
      "byteLength": 136800,
      "byteOffset": 434520,
      "byteStride": 16,
      "name": "floatBufferViews",
      "target": 34962
    },
    {
      "buffer": 0,
      "byteLength": 568,
      "byteOffset": 571320,
      "name": "floatBufferViews"
    },
    {
      "buffer": 0,
      "byteLength": 2272,
      "byteOffset": 571888,
      "byteStride": 16,
      "name": "floatBufferViews"
    }
  ],
  "buffers": [
    {
      "byteLength": 574160,
      "uri": "scene.bin"
    }
  ],
  "images": [
    {
      "uri": "textures/vintage_cage_baseColor.jpeg"
    },
    {
      "uri": "textures/vintage_cage_metallicRoughness.png"
    },
    {
      "uri": "textures/vintage_cage_normal.png"
    }
  ],
  "materials": [
    {
      "doubleSided": true,
      "name": "vintage_cage",
      "normalTexture": {
        "index": 2
      },
      "occlusionTexture": {
        "index": 1
      },
      "pbrMetallicRoughness": {
        "baseColorTexture": {
          "index": 0
        },
        "metallicRoughnessTexture": {
          "index": 1
        }
      }
    }
  ],
  "meshes": [
    {
      "name": "vintage cage door_vintage cage_0",
      "primitives": [
        {
          "attributes": {
            "NORMAL": 1,
            "POSITION": 0,
            "TANGENT": 2,
            "TEXCOORD_0": 3
          },
          "indices": 4,
          "material": 0,
          "mode": 4
        }
      ]
    },
    {
      "name": "Object001_vintage cage_0",
      "primitives": [
        {
          "attributes": {
            "NORMAL": 6,
            "POSITION": 5,
            "TANGENT": 7,
            "TEXCOORD_0": 8
          },
          "indices": 9,
          "material": 0,
          "mode": 4
        }
      ]
    }
  ],
  "nodes": [
    {
      "children": [1],
      "matrix": [
        1.0, 0.0, 0.0, 0.0, 0.0, 2.220446049250313e-16, -1.0, 0.0, 0.0, 1.0,
        2.220446049250313e-16, 0.0, 0.0, 0.0, 0.0, 1.0
      ],
      "name": "Sketchfab_model"
    },
    {
      "children": [2],
      "matrix": [
        0.02539999969303608, 0.0, 0.0, 0.0, 0.0, 0.0, 0.02539999969303608, 0.0,
        0.0, -0.02539999969303608, 0.0, 0.0, 0.0, 0.0, 0.0, 1.0
      ],
      "name": "d674fa7aa9e941d8887b1b3edbd74994.fbx"
    },
    {
      "children": [3],
      "name": "Object_2"
    },
    {
      "children": [4, 6],
      "name": "RootNode"
    },
    {
      "children": [5],
      "name": "vintage cage door",
      "rotation": [
        3.090862321641907e-8, 0.7071068286895752, 0.7071068286895752,
        -3.090862321641907e-8
      ],
      "translation": [
        -4.980768203735352, 56.101749420166016, 0.31933021545410156
      ]
    },
    {
      "mesh": 0,
      "name": "vintage cage door_vintage cage_0"
    },
    {
      "children": [7],
      "name": "Object001",
      "rotation": [
        -5.338508657359853e-8, 0.7071068286895752, 0.7071068286895752,
        5.338508657359853e-8
      ],
      "translation": [0.00017493963241577148, 0.0, -14.850258827209473]
    },
    {
      "mesh": 1,
      "name": "Object001_vintage cage_0"
    }
  ],
  "samplers": [
    {
      "magFilter": 9729,
      "minFilter": 9987,
      "wrapS": 10497,
      "wrapT": 10497
    }
  ],
  "scene": 0,
  "scenes": [
    {
      "name": "Sketchfab_Scene",
      "nodes": [0]
    }
  ],
  "textures": [
    {
      "sampler": 0,
      "source": 0
    },
    {
      "sampler": 0,
      "source": 1
    },
    {
      "sampler": 0,
      "source": 2
    }
  ]
}
